<svg version="1.1" viewBox="610 130 430 455" xmlns="http://www.w3.org/2000/svg">
<path transform="translate(697,204)" d="m0 0h79l24 1v-1h23v1h13l7 2 4 1v2l7 1 8 2 12 7 6 5 2 4 4 2 2 3v3l4 2 4 6v4l2 1 3 7 3 11 1 7v18l-3 14-6 15-6 9-5 6-16 12-12 6-13 4-14 2-89 1-18 4-13 5-11 7-11 10-7 11-5 8-5 15-3 14-1 78h28v-70l2-13 5-13 7-11 6-7 12-7 13-4 7-1h19l38 1h31l11-2 4-2 5-1 6-2 10-4 15-8 9-7 5-1 24 24 2 1-1 4-12 10-22 12-15 6-18 5-22 3 3 5 13 17 4 6 7 11 11 17 3 5 8 7 14 8 8 5 12 3 28 2v1h25l2 4v30l-1 5h-39l-24-3-16-5-16-8-10-6-8-6-8-7-7-8-10-13-15-24-10-15-11-13-10-8-16-7-12-2-14 1-6 3-3 4-2 6-1 110-1 1h-39l-67-1-1-1v-112l3-20 4-15 7-17 9-15 8-10 14-14 10-7 9-5 17-7 15-5 13-1 1-1 92 1v-2l10-2 16-8 2-4 5-8 2-6 1-15-3-11-6-10-9-7-8-4-4-1-100-1v60l-1 4-20 4-15 5h-3l-1-2v-110z" fill="#0C60BF"/>
<path transform="translate(697,204)" d="m0 0h79l24 1v-1h23v1h13l7 2 4 1v2l7 1 8 2 12 7 6 5 2 4 4 2 2 3v3l4 2 4 6v4l2 1 3 7 3 11 1 7v18l-3 14-6 15-6 9-5 6-16 12-12 6-6 2-24 3-14-1v-1l11-1-5-5-5-4-7-4-5-8-9-7v-2l-2-1h-55l-13 2h-5l2-1v-2l7-1 9-1 1-1 92 1v-2l10-2 16-8 2-4 5-8 2-6 1-15-3-11-6-10-9-7-8-4-4-1-100-1v60l-1 4-20 4-15 5h-3l-1-2v-110z" fill="#45ACD8"/>
<path transform="translate(801,604)" d="m0 0h76l17 4 16 8 12 11 7 11 4 9 2 9 1 16-2 13-4 12-3 6-6 8-5 5-7 6-12 6-13 4-5 1-15 1h-63z" fill="#FCFCFC"/>
<path transform="translate(628,138)" d="m0 0h163l1 1 1 14-1 2-1 21h-125l1 24v125l-1 10-9 7-12 12-11 15-5 8h-2l-1-233-1-2 1-3z" fill="#0D61BF"/>
<path transform="translate(508,604)" d="m0 0h73l16 4 8 4 9 7 7 10 3 8 1 7v11l-3 12-4 8-9 10-9 5 1 4 12 17 13 19 2 4h-32l-4-2-7-10-10-15-6-8v-3h-30l1 5v32l-1 1h-31z" fill="#FCFCFC"/>
<path transform="translate(693,604)" d="m0 0h34l9 20 12 25 13 28 18 39 7 15v3h-32l-12-26v-2h-64l-3 9-8 18-1 1h-31l1-5 25-55 7-15 16-35z" fill="#FDFDFD"/>
<path transform="translate(1e3 604)" d="m0 0h33l12 26 14 30 13 29 8 16 12 27v2h-33l-9-21-2-7h-64l-3 9-8 18-1 1h-25l-6-1 2-6 17-36 11-25 15-32 9-20z" fill="#FDFDFD"/>
<path transform="translate(688,607)" d="m0 0 2 2-1 6-16 35-7 15-4 9-12 26-14 31-1 3 31-1 12-27h64l12 26v2h32l-6-14 1-3 2 2 1-7-1-11-1-3v-18-4-7l1-3 1-11 1-1 1-12 3-8 1-6 3-5 2-8 3-6 3-2v127l63-1 15-1 15-4 11-5 9-6 5-4 2 1-3 6-4 4h-3v2l-8 4-4 4-4 2h-4v2l-4 2-3 3-6 2-8 1-5 2-19 1-12 2h-7l-6-1h-12l-8 1h-10l-3-4v-2l-4-2-5 1-14 2-2 2-14 2-4 1-6-1-6-4-3-6-5-3-6-9-11-3-16-2-5 2-12 1-1 4-2 4-4 2v2l-4 1-1 3-8 1v2l-9 3h-3v2l-7 1-8-1-6-2h-11l-11 1-1 3-11 1-12-1-3-1v-2l-3-1-3-6-7-6-3-6-2-1-1-5-4-1v-2h-2l-2 7h-1l-1 6h-1l-1-34-2-4h29l4 7 14 20 6 9 3 1h29l5 1-6-8 1-3 4-2 4-5 3-6 3-7 4-8h2l-1-4 2-4v-2l2-1v-2h2l2-15h2l1-6 5-2 1-6h2v-2h2v-7h2l2-11 3-1 2-4 6-7 6-10z" fill="#1C1D1F"/>
<path transform="translate(896,324)" d="m0 0 2 2-3 4-2 5-4 7-1 2-3 1-2 3h-2l1 3h-3l-2 4-3 1-1 2h-2l-1 3-7 5h-2l-1 4-5 2-2 5-2 2 1 3h9l-1 2h-5l-1 2-7 1v1l-12 2h-31l-38-1h-19l-14 3-12 5-9 7-9 14-5 13-2 13-1 70h-28v-78l5-21 4-10 9-14 9-10 11-8 12-6 13-4 11-2 89-1 18-3 16-6 13-9 10-8 5-7z" fill="#424242"/>
<path transform="translate(697,204)" d="m0 0h79l20 1v1h-46l-6 1 41 1 3 2v5l2 2v13l2 1 1 2 4 1v2l6 1 2 4h24l14 3 8 5v2l4 2 1 3-4-2-5-4-8-4-4-1-100-1v60l-1 4-20 4-15 5h-3l-1-2v-110z" fill="#3589C3"/>
<path transform="translate(927,254)" d="m0 0 2 3 3 13 1 9 1 1 25 1-3 3-4 2 12 2v1h-30l-1 13-3 12v4l21 8 15 6-2 5-5 2v2l-3 1-9-4-24-9-2 5-9 14-3 3 1 4 22 22 4 2 10-11 10-16 3-3-1 7-2 4h-2l-2 6-6 10-1 3h-2l-2 5-4 2-1 3h-2l-2 4-4 3h-2l1 3h-2v2l-5 1-1 4-3 1-1 3-4 4-1 2h-2l-1 3-6 3h-2v2l-10 5h-2l-1 2-7 1-1 3 12 21 11 13 7 6 12 7 11 3 43 2-2 5-3 5-3 3h-2v2l-5 1v5l-3-1-2 4-9 2h-16l-14-2-6-1v-2l-3 1v-2l-5-2-11-6-5-3-10-10-18-28-4-5-3-5-15-20 1-2 22-3 21-6 18-8 17-10 11-9 1-3-4-2-22-22v-2h2v-2h2l2-7 6-8 5-8 2-5h2l2-4 1-1v-8l2-9h2v-9l3-6 1-7-2-1v-2h-2l-2-6v-21z" fill="#414142"/>
<path transform="translate(898,362)" d="m0 0 4 2 22 22 2 1-1 4-12 10-22 12-15 6-18 5-22 3 3 5 13 17 4 8-1 3-8-12-3-1-5 3h-2v2l-6-1-6-2-4-7-5-4-6-3-2-7-4-1-5-7-9-4-7-3-6-4-3-4-4-2v-5l-4-3 1-1-4-1-24-1 3-2 93-1 11-2 4-2 5-1 6-2 10-4 15-8 9-7z" fill="#0C60BF"/>
<path transform="translate(735,244)" d="m0 0h100l10 4 6 4 6 5 6 10 3 11-1 15-4 10-6 8-9 6-10 4-9 1 1-5 3-3 1-2h2v-3h2l-2-6-2-7-2-6-3-3-3-5-5-2-2-3-7-1-4-2h-3-17l-10 2-4-2-5-1v5l-2-1v-2h-11l-4-1-1 2-2-2-3 3-7 4-1 25-2-4v-55z" fill="#414141"/>
<path transform="translate(628,138)" d="m0 0h163l1 1 1 14-1 2-1 21-119-1-2-6-4-1-9-7v-2h-2v-2l-4-2-2-4-8-5-2-5-10-1z" fill="#1773C6"/>
<path transform="translate(849,628)" d="m0 0h14l14 2 12 6 6 5 6 10 3 10v15l-3 10-6 9-9 8-10 4-5 1h-38v-79z" fill="#414242"/>
<path transform="translate(754,427)" d="m0 0 15 1 14 5 10 6 10 9 11 14 12 19 10 16 11 14 7 8 8 7 14 9 15 8 15 5 17 3 11 1 38 1-1 3-11 4-13 2-7 1-31 1-14-2-10-5-7-1-3-1v-2l-4 1-5-3-3-2v-2l-5-1-7-3-4-7-8-6-4-5-4-2-12-18-1-5-4-4-5-8v-3l-3-1-6-8-2-4-6-8-1-3-4-2-4-4-2-3-17-5v-2l-14-3h-8v2l-5 3-1 16h-1v-21l4-9 5-4z" fill="#202224"/>
<path transform="translate(666,352)" d="m0 0 2 1-12 12-10 15-8 16-6 18-3 16-1 9v112l69 1h20l18 1-2 4-14 6-13 3-6 2-24 2h-45l-12-3-4-4-4-9-1-4-1-34 1-10 1-43 3-12 2-10 2-13 5-12 5-11 3-10 8-14 5-5 8-9 8-10z" fill="#1F2224"/>
<path transform="translate(905,419)" d="m0 0h8l10 16 7 8 8 4 33 1 2 2v36l-1 1h-16l-25-1-13-4-14-9-8-8-9-12-10-18 1-2 9-4 10-5h2v-2z" fill="#44ABD8"/>
<path transform="translate(857,257)" d="m0 0 3 1 7 12 1 21 1 4-2 3h2l1-2-2 9 3 1-1 5 2 4h3l4 1 5 5 3 6h2l3-8h-2v-4h2v2h2l2-9h2l2 5-8 16-7 8-16 12-12 6-6 2-24 3-14-1v-1l11-1-5-5-5-4-7-4-5-8-9-7v-2l-2-1h-55l-13 2h-5l2-1v-2l7-1 9-1 1-1 92 1v-2l10-2 16-8 2-4 5-8 2-6 1-15-3-11-5-8z" fill="#348AC5"/>
<path transform="translate(507,606)" d="m0 0h1v128h33v4l-5 4h-4l-1 3-5 3-8 1v2l-6 1v2h-18l-7-9-1-5-1-25 1-10v-17l1-2v-24l3-24 2-4h2l1-6 6-7 3-8z" fill="#202224"/>
<path transform="translate(886,335)" d="m0 0v3l-4 5h-2v2h-2v2l-15 10-12 7-18 6-22 2-49 1h-20l-21 2v2l-15 6-9 4-2 3-4 2-4 5h-2v2l-3 3-8 16-4 14-1 8v71l11-1v-6h2l-1-4 1-46 4-8 4-12 2-5h2v-3h2l1-4 7-11h2l-2 5-5 12-2 7-1 9-1 70h-28v-78l5-21 4-10 9-14 9-10 11-8 12-6 13-4 11-2 89-1 18-3 16-6 13-9z" fill="#202224"/>
<path transform="translate(736,325)" d="m0 0h56l4 6 7 5 4 7 11 7 7 6-2 4h-82l-15 3h-5v-4l4-2v-2l-3-1 1-9-3-12-1-3-8 1-11 4h-2v-2l18-7 7 1z" fill="#1772C5"/>
<path transform="translate(625,143)" d="m0 0 2 1v233h2l2-5 10-14 11-12 8-8 5-3 1-10v-26l1-58h1v93l-2 5-10 11-5 5-6 5-6 8-8 12-2 2-9-1-4-7-1-7-1-1-1-23 1-6-1-1v-7l-1-5 1-9 2-7v-25l-1-2v-22l1-11 1-17h-2l1-13v-18l2-23h2v-13l2-3z" fill="#202224"/>
<path transform="translate(628,138)" d="m0 0h163l1 1 1 14-1 2-1 21-65-1v-1l6-1-5-10v-6l1-3 1-10 1-1-3-1-12-1-86-1z" fill="#358BC6"/>
<path transform="translate(898,362)" d="m0 0 4 2 22 22 2 1-1 4-12 10-22 12-13 4h-4l-3-5-7-6-8-7v-2l-4-2-2-4h-2v-2l-17 3h-92l3-2 93-1 11-2 4-2 5-1 6-2 10-4 15-8 9-7z" fill="#3489C4"/>
<path transform="translate(546,628)" d="m0 0h24l10 2 7 4 6 9v13l-4 7-6 5-7 3h-36l-1-2v-37l1-3z" fill="#202224"/>
<path transform="translate(695,207)" d="m0 0h1l1 8 1 21 2-3 1 3 2 2v2l1 11 3 8 5 5 6 8 3 2 3 8 2 1v6h2l-1 7h3v-6h1l1 11 1-57 2-2 99 1v1h-99v60l-1 4-20 4-15 5h-3l-1-2z" fill="#1670C4"/>
<path transform="translate(849,628)" d="m0 0h14l14 2 12 6 6 5 6 10 3 10v15l-3 10-6 9-9 8-6 3h-8l4-2 2-4 4 1v-3l3-1-1-2 1-2 1-21h-2v-11l-2-7-3-2v-2l-5-1-1-1-9-1-2-1-22-1h-5v11h-1l-1-11v-16z" fill="#1A1B1D"/>
<path transform="translate(735,244)" d="m0 0h100l10 4 6 4 6 5 6 10 3 11-1 15-4 10-6 8-3 1 1-9 3-1v-9l-1-2-1-11-4-9-2-5-5-5-4-3-7-2-13-1-2-1-15 1h-16l-40 1-9 2-2 4-1-15z" fill="#222426"/>
<path transform="translate(747,391)" d="m0 0h27l21 7 12 6 11 8 12 11 6 5 13 17 5 8 2 4-1 3-8-12-3-1-5 3h-2v2l-6-1-6-2-4-7-5-4-6-3-2-7-4-1-5-7-9-4-7-3-6-4-3-4-4-2v-5l-4-3 1-1-4-1-16-1z" fill="#1772C5"/>
<path transform="translate(984,706)" d="m0 0h64l11 25v3l19-1 9 1-3 4-3 1h-9v2l-6 1h-20l-5-4-2-4-3-3-1-3-9-6v-2h-8v-2l-15 1-2 1v-2h-7v2l-11 1-4 2v-6z" fill="#202224"/>
<path transform="translate(666,176)" d="m0 0h125v2h-3l2 4-6 3-5 1h-10l-14 1h-8l-14 2h-23l-23 1-15 1-4 2v14h-1l-1-7z" fill="#202224"/>
<path transform="translate(923,329)" d="m0 0 7 1 11 5 11 4 7 4 1 2-3 7-10 16-11 12-6-4-22-22 1-4 7-9z" fill="#3387C4"/>
<path transform="translate(548,704)" d="m0 0h5v2l6 1 3 3 5 7v3h2l6 7 7 9v3l4 1 1 1h25l15-3 4 1 1 3 17-1 9-2h6l-1 3-8 1v2l-9 3h-3v2l-7 1-8-1-6-2h-11l-11 1-1 3-11 1-12-1-3-1v-2l-3-1-3-6-7-6-3-6-2-1-1-5-4-1v-2h-2l-2 7h-1l-1 6h-1v-25l1-2 3-1z" fill="#202224"/>
<path transform="translate(934,289)" d="m0 0h39l1 4-2 16-1 7-1 3-1 6-2 6-4 1-25-10-9-4 1-7 2-9 1-11z" fill="#44ABD8"/>
<path transform="translate(800,607)" d="m0 0h1v127l81-1 2 1 4 1-1 1h-7v2l-7 1v2l-13 1h-60l-3-1-3-10-2-5 1-7 1-12v-17h-2l-1-8 2-22 1-3 2-28 3-21z" fill="#141517"/>
<path transform="translate(961,235)" d="m0 0h5l4 11 3 18v13l-2 1-36-1-1-1-3-18-2-10 13-6 12-4z" fill="#42A7D6"/>
<path transform="translate(927,254)" d="m0 0 2 3 3 13 1 9 1 1 25 1-3 3-4 2 12 2v1h-30l-1 13-3 12v4l21 8 15 6-2 5-5 2v2l-3 1-9-4-24-9-2 5-9 14-3 3 1 4 22 22 4 2 9-10v3l-8 10-7 4h-7l-23-23v-2h2v-2h2l2-7 6-8 5-8 2-5h2l2-4 1-1v-8l2-9h2v-9l3-6 1-7-2-1v-2h-2l-2-6v-21z" fill="#232528"/>
<path transform="translate(936,188)" d="m0 0 4 2 5 7 2 2 3 5 2 5 2 1 4 6 2 6-2 3-7 2-14 7-10 4h-3l-6-11-9-12 2-5 8-8 4-2 11-11z" fill="#45A8D6"/>
<path transform="translate(750,430)" d="m0 0h14l12 3 14 7 12 11 9 11 11 17 8 13 9 13 11 13 10 10 10 7 11 6 12 6 17 5 12 2 26 1 8 1v1l-9 2h-28l-17-3-2-1v-2l-11-1-7-4-9-3-8-4-5-5-8-6-4-6-4-2-7-9-2-1-2-5-4-4-3-7-4-5-2-6-4-1-2-4v-3l-4-1-2-4v-3h-2l-1-6-4-1-1-5h-2v-2h-2l-4-5-5-4-2-1 1-2-3 1-10-5-3-2-6-1-19-1-2-1-2 4-4 4 1-5 6-6z" fill="#131416"/>
<path transform="translate(629,417)" d="m0 0h1l-1 13-1 9-1 116h95l3 2-7 3-8 1-39 2h-40l-7-4-2-9-1-5-1-28 1-25v-42l3-19 2-11z" fill="#131416"/>
<path transform="translate(896,156)" d="m0 0 12 6 11 8 8 7-1 6-10 9-9 10h-2v2l-5 1-10-8-10-6-1-4 10-21 2-4h2l1-5z" fill="#48ADD9"/>
<path transform="translate(882,431)" d="m0 0 2 2-1 4 2 4h3l1 9v4l7 2 7 1h3l5 5h11l6 2 4 4 9 2 10 1 4 1h9l4-1v2h2v-15h1l1 19h1v9l-1 1h-16l-25-1-13-4-14-9-8-8-9-12-10-18 1-2z" fill="#3186C4"/>
<path transform="translate(694,207)" d="m0 0h1l1 110 18-6 14-3h7l-4 5-12 6-7 3-6 3-7 2-9 1-6-9v-71l3-11 1-3 2-8 2-7z" fill="#1F2123"/>
<path transform="translate(877,435)" d="m0 0 3 3 9 17 12 14 7 6 12 7 11 3 41 2-4 2-3 3-19 3-6 1h-11l-2-1-15-2-14-5-8-4-7-8-2-7-3-8-3-10-2-8z" fill="#212325"/>
<path transform="translate(676,710)" d="m0 0h1v7l3-3 9 1 8-1h27l11 6 2 4h2l1 6h2l2 5 2 1v2l4 1 2 2h19l9 1-1 2-14 2-2 2-14 2-4 1-6-1-6-4-3-6-5-3-6-9-11-3-16-2-5 2-12 1-1 4-2 4-4 2v2l-4 1v-3l-25-1v-1l27-1z" fill="#232527"/>
<path transform="translate(851,141)" d="m0 0h7v2l4-1 6 2 6 1v2l5 1 6 3-4 10-2 7-2 2-6 12-1 3-9-2-18-5v-8l4-24 2-4z" fill="#42A6D5"/>
<path transform="translate(806,138)" d="m0 0h30l1 9-1 10h-2l1 4-3 16-28-1-1-13v-23z" fill="#43ABD8"/>
<path transform="translate(507,606)" d="m0 0h1v128h31l1 2-3 3h-5v2l-19 3-4 1v-2l-5-1-4-3-1-29 1-66 1-3 3-21 2-3z" fill="#131416"/>
<path transform="translate(688,607)" d="m0 0 2 2-1 6-16 35-7 15-4 9-12 26-14 31h-2l-1 2h-2v2h-37l-1-2h32l5 1-6-8 1-3 4-2 4-5 3-6 3-7 4-8h2l-1-4 2-4v-2l2-1v-2h2l2-15h2l1-6 5-2 1-6h2v-2h2v-7h2l2-11 3-1 2-4 6-7 6-10z" fill="#1D1E20"/>
<path transform="translate(678,706)" d="m0 0h64l12 26v2h31v2l-3 3h-10v2l-8 1h-12l-3-3-3-1v-2l-3-1-1-5h-2l-1-6h-2l-5-5-8-4h-29l-13 1-5 2-1-2z" fill="#1B1C1E"/>
<path transform="translate(1015,634)" d="m0 0h2l13 30 7 17v1h-42l3-9 12-27z" fill="#161719"/>
<path transform="translate(709,634)" d="m0 0h2l11 26 9 20v2h-42l3-9 15-34z" fill="#1B1C1E"/>
<path transform="translate(625,151)" d="m0 0h1l1 12v170l-1 43-2-1-2-33-1-2v-21l1-1 1-8-2-33v-21l1-10v-64l2-13z" fill="#131416"/>
<path transform="translate(977,645)" d="m0 0 1 3-8 17-11 24-12 26-5 11-2 8 27 1v4h-3v2l-10 2-5 2-13 1-3-1-4-8 3-9 1-4h2v-2h2v-3l2-1 3-5 1-11h2v-2l2-1 2-6 2-5 4-1 1-5 2-7h2v-2h2l1-5 3-6h3l1-6h1l2-6 2-1z" fill="#202224"/>
<path transform="translate(622,419)" d="m0 0 1 4-4 21-2 11-1 37-1 5-2 36 1 6-1 5 2 6 3 10 3 3 5 2 21 2 24-2h24l6-2h15v1l-10 2-6 2-24 2h-45l-12-3-4-4-4-9-1-4-1-34 1-10 1-43 3-12 2-10 2-13z" fill="#292C2E"/>
<path transform="translate(704,411)" d="m0 0h2l-2 5-5 12-2 7-1 9-1 70h-11l2-1-2-3v-22l1-1v-18l-1-4 6-31 2-5h2v-3h2l1-4z" fill="#202224"/>
<path transform="translate(984,706)" d="m0 0h64l11 25v3l17 1 1 3-8 1h-14l-6-7-4-10v-3h-2l-2-4-4-1h-45l-11 1 1-5z" fill="#161719"/>
<path transform="translate(501,621)" d="m0 0v3l-3 9-2 5-2 20v7l-1 4-1 10v20l-1 12 1 30 2 2v3l4 2 3 2h6l8-3 6-2 9-1v-2h2l-1 3-5 3-8 1v2l-6 1v2h-18l-7-9-1-5-1-25 1-10v-17l1-2v-24l3-24 2-4h2l1-6z" fill="#292C2E"/>
<path transform="translate(546,628)" d="m0 0h24l7 1v1l-6 1h-28l1 27 4-11 8 1 10 2 2 2 2 5 2 2v5l-5 4v1l9 1v1h-36l-1-2v-37l1-3z" fill="#424242"/>
<path transform="translate(745,439)" d="m0 0h15l12 4 12 6 3 1 5 8 5 4 5 10 5 6 2 1 2 5 1 4h2l5 6 4 9 5 6 3 5 2 4 4 3v2l5 2 3 5 3 1 4 5 4 4 3 1v2l5 2v2l10 3 8 3v2l11 1 2 2 12 3 16 1v1l-5 1h-9l-14-2-10-5-7-1-3-1v-2l-4 1-5-3-3-2v-2l-5-1-7-3-4-7-8-6-4-5-4-2-12-18-1-5-4-4-5-8v-3l-3-1-6-8-2-4-6-8-1-3-4-2-4-4-2-3-17-5v-2l-19-4z" fill="#292C2E"/>
<path transform="translate(754,427)" d="m0 0 15 1 14 5 10 6 10 9 11 14 12 19 10 16 11 14 7 8 8 7 14 9 15 8 15 5 17 3 11 1 38 1-1 3-4 2-4-1 1-1-42-1-15-3-16-5-12-6-13-8-9-7-12-12-13-17-9-15-16-24-12-13-10-7-15-6-6-1h-14l-7 2-6 5 2-5 5-4z" fill="#222528"/>
<path transform="translate(571,630)" d="m0 0h9l7 4 6 9v13l-4 7-6 5-2-4 3 1-1-6v-2l2-1v-2h-2v-2h-2l-3-9-6-4-21-1-3-2-3 11-2-1v-15z" fill="#17181A"/>
<path transform="translate(617,177)" d="m0 0h2v36l-1 2v12l1 9v12l-1 12-1 10 1 2v45l-1 5v14l1 8v22l2 10v3l5 1-4 1-2-1-3-6-1-7-1-1-1-23 1-6-1-1v-7l-1-5 1-9 2-7v-25l-1-2v-22l1-11 1-17h-2l1-13v-18z" fill="#282B2D"/>
<path transform="translate(735,244)" d="m0 0h100l10 4 6 4 6 5 6 10 3 11-1 15h-1l-1-16-3-9-3-4v-2h-2l-3-4-4-2v-2h-3v-2l-13-3-97-1v5h-1z" fill="#283037"/>
<path transform="translate(925,390)" d="m0 0 2 1-8 9-20 14-10 5-11 6-10 4-11 4-13 3 2 5-5-5-6-8 1-2 22-3 21-6 18-8 17-10z" fill="#232527"/>
<path transform="translate(548,714)" d="m0 0 7 4 5 6 9 13v2l4 2 5 6 8 1h11l7-1v-2l13-3h7l1 2 11 2 6 1v-2h8l-1 2-6 1v2l-7 1-8-1-6-2h-11l-11 1-1 3-11 1-12-1-3-1v-2l-3-1-3-6-7-6-3-6-2-1-1-5-4-1v-2h-2l-2 7-2-1 1-9h2z" fill="#292C2E"/>
<path transform="translate(835,633)" d="m0 0 2 1 22 1 9 1 10 2 2 3 6 2 3 3 3 1 2 6 2 2-1 4 1 8v15l-2 6-3-2-1-7-1-4-1-10-1-9-2-5-5-3-1-3h-2v-2h-8l-24-3h-9l-1-1z" fill="#202224"/>
<path transform="translate(688,607)" d="m0 0 2 2-1 6-16 35-7 15-4 9-12 26-2-2 1-3v-7l2-1 4-9 2-1-1-5v-3l-1-3 3-1 1-4 4-5 1-4 2-1 8-23 6-7 6-10z" fill="#212325"/>
<path transform="translate(835,639)" d="m0 0h13l29 4v2h2l3 4 4 2 3 9v11l1 7 1 5 3 8-3 2v4l-2 4-9 5h-8l4-2 2-4 4 1v-3l3-1-1-2 1-2 1-21h-2v-11l-2-7-3-2v-2l-5-1-1-1-9-1-2-1-22-1h-5z" fill="#282B2D"/>
<path transform="translate(735,248)" d="m0 0h97l11 3 2 1v2h3l1 2 5 3 1 3h2l5 8 2 7v19l-5 10-2 1 2-9 1-5h2l-1-2-1-16h-2l-4-10v-2h-3v-3l-3-1v-2h-3v-2h-4v-2l-5-1-12-1h-53v1h-34l-1 10h-1z" fill="#131416"/>
<path transform="translate(1048,636)" d="m0 0 5 3 2 9v-2h2l1 3h2v7 3l3 5 6 2-1 3h-2l1 5 2 2 3 4 1 3 1 2 5-1-1 4 2 2-2 2 2 3h2v6l3 1v3l5 2-2 3h-2l2 2h3l-2 3 1 3 2 1h2v2l4 2 2 4h-2v2l2 1-5 4h-3l-17-37-15-32-12-26zm52 86 2 1z" fill="#484848"/>
<path transform="translate(707,649)" d="m0 0h4l-1 4-1 2 1 4 7 16 3 3-1 2h-20l-6-3-1 4-3 1 3-9 10-23 2 3v3l2-4z" fill="#212325"/>
<path transform="translate(697,718)" d="m0 0 19 3 10 4 1 3 3 1 2 3v5h2v3l5 2 2 1v2l5 1h7l2-1h10l-2 3-14 2-4 1-6-1-6-4-3-6-5-3-6-9-11-3-16-2-5 2-8 1-2-1 1-4 2-2 1 1 14-1z" fill="#292C2E"/>
<path transform="translate(666,176)" d="m0 0h125v2h-3l1 3-111-1v-1l7-1-18-1-1 2z" fill="#293139"/>
<path transform="translate(843,361)" d="m0 0h6l-2 2-9 2-7 2-53 1-19 1-16-1-17 3-8 2-7 5-12 5-9 8v-3l10-9 11-6 15-6 21-3h80l14-2z" fill="#131416"/>
<path transform="translate(991,611)" d="m0 0 2 1-1 5-5 11-7 15v6l-15 32-8 18-15 32h-1v-5l7-15 12-26 11-24 6-13-1 1-3 2-1 6h-1l-2 6h-3l-1 5h-2l-1 5h-1v-5l4-7 2-7h2l1-5 4-5h2l-1-4 1-2h2l3-9 4-5v-3l5-7z" fill="#1F2123"/>
<path transform="translate(886,335)" d="m0 0v3l-4 5h-2v2h-2v2l-5 3-5 2-14 7-5 2-13 3-9 1h-36l-24-1-1-1-10-1v-1l74-1 18-3 16-6 13-9z" fill="#282E33"/>
<path transform="translate(677,404)" d="m0 0 1 2-3 9-5 17-1 8v71l11-1v-6h2l-1-4 1-46 4-8 3-8 1 3-5 25 1 4v17l-1 5v18l1 3-2 1h-17v-78l5-21 4-10z" fill="#282B2D"/>
<path transform="translate(694,439)" d="m0 0h1v75h-11v-1l6-1-1-6v-46l1-11 3-9z" fill="#131416"/>
<path transform="translate(890,736)" d="m0 0 1 2-4 2-3 3-6 2-8 1-5 2-19 1-12 2h-7l-6-1h-12l-8 1h-10l-3-4v-2l-8-4h4l1-3 5 1 1 6 10 2 13-1 5-1h19l2 1 6-2 5 1 25-2 6-3z" fill="#282B2D"/>
<path transform="translate(888,167)" d="m0 0 1 2-9 18 1 4 12 7 7 6h5v-2l14-14 1 2-1 2h-2l-2 4-3 1-2 4-7 7-5-1 2 3-7 1-7-3v-2l-4-2-5-4-1-8h2l-1-5 2-7 3-3z" fill="#2B3239"/>
<path transform="translate(688,236)" d="m0 0h1v70l-1 4v10l4 4v2l13-3 4-2 3 1-6 3-7 2-9 1-6-9v-71l3-11z" fill="#292C2E"/>
<path transform="translate(927,254)" d="m0 0 2 3 3 13 1 9 1 1 25 1-3 3-4 2 12 2v1h-30l-1 7-2-2 1-7-2-1v-2h-2l-2-6v-21z" fill="#292E32"/>
<path transform="translate(1006,655)" d="m0 0 3 3h3l2 5 2 9 1 3 3 1v2l-4 2-11 1-3 1h-7l3-9z" fill="#3F3F40"/>
<path transform="translate(877,435)" d="m0 0 3 3 9 17 12 14 7 6 12 7 11 3 41 2-4 2-10 1-26-1-15-4-11-6-11-11v-2h-2l-9-13-8-16z" fill="#283138"/>
<path transform="translate(741,361)" d="m0 0h15l10 1 1 2-30 2-13 3-16 6-10 7-8 7 4-3 2 1-1 3-4 2-4 5h-2v2l-3 3-5 8-1-2 4-9 7-11 8-8 10-7 12-6 13-4z" fill="#24282B"/>
<path transform="translate(793,623)" d="m0 0 1 4-2 7-1 10-1 1-1 18-2 9-1 19v9l2 4v14l-4 2-1-19-1-3v-18-4-7l1-3 1-11 1-1 1-12 3-8 1-6z" fill="#292C2E"/>
<path transform="translate(928,251)" d="m0 0h2l4 17 1 8 38 1-1 5-2 1-1 3-2 1v2l-12-1-5-2 8-4-24-1-2-2-2-14-2-8z" fill="#2B333A"/>
<path transform="translate(627,551)" d="m0 0 70 1h20l18 1-2 4-6 3-2-1 3-4h-101z" fill="#22272B"/>
<path transform="translate(1009,648)" d="m0 0h3l1 3 4 2 4 10v5h2l4 6v2l2 1-1 3-19 2h-7l3-2 6-1v-1h9v-2l-4-1-3-9-1-6-2-2-2 2-1-7z" fill="#202224"/>
<path transform="translate(667,180)" d="m0 0 118 1v1l-33 1-15 1h-40l-21 1-8 1v2h-2v-7z" fill="#131416"/>
<path transform="translate(802,144)" d="m0 0h1l1 35 19 1 4 2-6 3-16 1-5-1-4-6v-7l3-14 2-12z" fill="#202224"/>
<path transform="translate(845,389)" d="m0 0h3v2h2l4 5 5 5 10 8v2l3 1 2 5-1 1-7-1-12-10v-2l-4-2-5-6-6-4v-3z" fill="#1773C6"/>
<path transform="translate(876,440)" d="m0 0h2l10 18 5 6v2h2l7 8 7 6 8 4 15 4 19 2v1h-18l-12-1v-2h-5l-5-3-6-2-2-1v-2l-6-2-2-5-3-1-4-5v-5l-3-1-2-7-1-3-3-1z" fill="#141517"/>
<path transform="translate(908,354)" d="m0 0 7 6 17 17 4 2 9-10v3l-8 10-7 4h-7l-10-10v-2l5-3 6 5 1 3-2 3 2 1 1-3 4 1-10-11-8-7-3-2-2-6z" fill="#222426"/>
<path transform="translate(922,328)" d="m0 0 3 1h-2l-2 5-9 14-3 3-1 6 1 4 4 2 5 4v2l4 2 9 10-1 2-4-2-1 2-3-1 2-4-5-5h-3l-4 2-12-12v-2h2v-2h2l2-7 6-8 5-8 2-5h2z" fill="#222527"/>
<path transform="translate(694,207)" d="m0 0h1l1 108 1 5 3 2-6 1-3-4v-9h2v-100z" fill="#141517"/>
<path transform="translate(754,427)" d="m0 0 15 1 14 5 10 6 10 9 11 14 4 6-1 4-8-11-9-11-10-9-14-7-12-3h-14l-7 2-6 5 2-5 5-4z" fill="#212427"/>
<path transform="translate(673,629)" d="m0 0 1 2-5 15-3 6h-2l-1 6-4 4-1 3-2 2v3l2 4-1 5-3 3-3 6h-2l-1 4h-2v9h-3l-1 3-4 2 2-5 3-6h2l-1-4 2-4v-2l2-1v-2h2l2-15h2l1-6 5-2 1-6h2v-2h2v-7h2l2-11 3-1z" fill="#202224"/>
<path transform="translate(997,717)" d="m0 0h25l10 1 9 5 2 7 3 5v2l4 2 1 1 15 1v1h-20l-5-4-2-4-3-3-1-3-9-6v-2h-8v-2l-15 1-2 1v-2z" fill="#292C2E"/>
<path transform="translate(720,185)" d="m0 0h49v1l-14 1h-8l-14 2h-23l-23 1-15 1-4 2v-2h2l1-4h11l18-1z" fill="#292C2E"/>
<path transform="translate(846,148)" d="m0 0h1l-1 11-3 14-1 9 14 3 9 3-1 3-5 1-3-1-13-1-1-3-4-1-1-4 1-1 1-10 4-12z" fill="#212325"/>
<path transform="translate(893,503)" d="m0 0 5 1 9 4 12 3 28 2v1h25l2 4v30l-2 3-1-34-44-1-17-4-16-7z" fill="#2878BD"/>
<path transform="translate(634,730)" d="m0 0 1 4 31 1-2 1v3l-15 3-15 1-6-5 1-3h2v-2h2z" fill="#141517"/>
<path transform="translate(977,645)" d="m0 0 1 3-8 17-11 24-12 26-2 2 1-5 1-6h2v-5l5-9h2l1-4 1-13h2v-2h2l1-5 3-6h3l1-6h1l2-6 2-1z" fill="#202224"/>
<path transform="translate(928,316)" d="m0 0 4 3 19 7 15 6-2 5-5 2v2l-3 1-6-3-1-2 7-3-8-4-9-4-11-4-1-4z" fill="#293138"/>
<path transform="translate(878,456)" d="m0 0 1 2h2l1 6h2l5 10v3l4 2 4 5 16 5 1 2 13 2v1h-11l-16-5-10-5-7-8-2-7-3-8z" fill="#292C2E"/>
<path transform="translate(934,289)" d="m0 0h39v1h-38v12l-4 13h2l3 3 13 4 10 4 6 3 2-4 1 4-1 2-4 1-25-10-9-4 1-7 2-9 1-11z" fill="#2A7CC0"/>
<path transform="translate(697,183)" d="m0 0h23l3 2-3 1-20 1-28 1-2 3h-2v16h-1l-1-7v-12h2v-2l10-2z" fill="#212326"/>
<path transform="translate(667,657)" d="m0 0 1 4-18 39-2-2 1-3v-7l2-1 4-9 2-1-1-6h2l1-6 3-1v-3l4-2z" fill="#1C1D1F"/>
<path transform="translate(549,643)" d="m0 0h2v2l10-2 7 3 1 3 4 2 3 12v2l-6 1 1-7-3-3-2-5-11-2-5-1-2-1-2 7h-1l1-8z" fill="#292C2E"/>
<path transform="translate(907,221)" d="m0 0 4 2 4 4 3 6 4 5v3l7-2 10-4h2v2l-16 8-6 1-7-14-3-2-2-4z" fill="#232628"/>
<path transform="translate(677,404)" d="m0 0 1 2-3 9-5 17-1 8v71l10-1 3 1v3h-15v-78l5-21 4-10z" fill="#29323A"/>
<path transform="translate(874,630)" d="m0 0 5 1 10 5 6 5 6 10 3 10v15l-3 10-1-4 1-7v-11l-2-8-5-10-7-7-12-6z" fill="#414243"/>
<path transform="translate(893,411)" d="m0 0 2 2-10 5-16 6-22 5-11 1-1-3 1-1 22-3 21-6z" fill="#24282C"/>
<path transform="translate(908,214)" d="m0 0 5 5 8 11 3 6v2l18-7 2 1-1 4-6 1-9 4h-6l-4-7-3-5-2-5-6-3z" fill="#293138"/>
<path transform="translate(700,665)" d="m0 0 4 2 5 7v2h2l-1 4h-11l-6-3-1 4-3 1 3-9 2-2 1 3h-2v2h3l1-6 2-1z" fill="#292C2E"/>
<path transform="translate(637,706)" d="m0 0 2 1-2 10-4 10 1 4-1 2h-2v2h-37l-1-2h32l5 1-6-8 1-3 4-2 4-5 3-6z" fill="#2C2E2F"/>
<path transform="translate(886,335)" d="m0 0v3l-4 5h-2v2h-2v2l-5 3-5 2-14 7-5 2-12 1-7-1v-1l18-3 16-6 13-9z" fill="#293138"/>
<path transform="translate(937,732)" d="m0 0 2 2 28 1v4h-18v2h-12l-1-2v-6z" fill="#131416"/>
<path transform="translate(919,713)" d="m0 0 2 1-3 6-4 4h-3v2l-8 4-4 4-9-2-2-2 16-6 10-7z" fill="#27292A"/>
<path transform="translate(1048,721)" d="m0 0h2l6 13 2-2 6 2 12 1 1 3-8 1h-14l-6-7-3-9 2-1z" fill="#141517"/>
<path transform="translate(834,367)" d="m0 0 4 1-5 2-22 2-49 1h-20l-18 1 3-2 5-1 69-1 30-2z" fill="#292C2E"/>
<path transform="translate(728,308)" d="m0 0h7l-4 5-3 1h-7l-12 3-5 2h-4v2l-4-1v-3l18-6z" fill="#282D31"/>
<path transform="translate(876,193)" d="m0 0 2 1v2l6 1 6 4 1 2 7 4 2 3-7 1-7-3v-2l-4-2-5-4z" fill="#202224"/>
<path transform="translate(737,322)" d="m0 0 38 1 17 1v1l-56 1-13 2h-5l2-1v-2l7-1 9-1z" fill="#3085C4"/>
<path transform="translate(929,263)" d="m0 0 2 2 2 14 1 1 25 1-3 3-2 1-11 1-6-1h-6l-2-15z" fill="#1C1D1F"/>
<path transform="translate(803,163)" d="m0 0h1v13h25l3 2-3 1-1 3-5-1-19-1-1-1z" fill="#2B3239"/>
<path transform="translate(804,139)" d="m0 0 2 1v33l25 2 2-16h2l-3 18-28-1-1-13v-23z" fill="#2676BD"/>
<path transform="translate(842,173)" d="m0 0h2l-1 5 15 3 12 4-2 1v3l-3 1v-2l-9-2-14-4z" fill="#2C343B"/>
<path transform="translate(667,241)" d="m0 0h1v93l-1 4-5 3-2-1 5-5 1-10v-26z" fill="#29323A"/>
<path transform="translate(906,358)" d="m0 0 12 9v2l4 2 9 10-1 2-4-2-1 2-3-1 2-4-5-5h-4l-3-1v-2h-2l-2-4 1-3-4-4z" fill="#131416"/>
<path transform="translate(539,696)" d="m0 0 3 1 1 3v33l-2 2h-2z" fill="#484848"/>
<path transform="translate(857,461)" d="m0 0 4 2 7 11 9 14 8 7 5 3v3l-4-2-8-7-10-12-10-15z" fill="#2976BB"/>
<path transform="translate(666,352)" d="m0 0 2 1-12 12-10 15-2 2-4 5-7 8-1-2 7-12 5-5 8-9 8-10z" fill="#262B2F"/>
<path transform="translate(898,362)" d="m0 0 4 2 16 16h-3l-8-8-4-1-4-2-7 1-6 4-2-1 5-5 6-5z" fill="#71B0D2"/>
<path transform="translate(972,277)" d="m0 0 1 2-1 3-2 1-1 3-2 1v2l-12-1-5-2 4-2 8-2 1-2-3-1 11-1z" fill="#424242"/>
<path transform="translate(673,629)" d="m0 0 1 2-5 15-3 6h-2l-1 6-4 4-1 3-2 2v3l-2 3h-2v-6h2l1-6 5-2 1-6h2v-2h2v-7h2l2-11 3-1z" fill="#292C2E"/>
<path transform="translate(747,388)" d="m0 0h19l38 1v1l-65 1v2l-10 2 1-3 10-3z" fill="#0C60BF"/>
<path transform="translate(957,677)" d="m0 0h1v11l-2 4-2 1-4 8-4 1v7l-3 4v-11h2v-2l2-1 2-6 2-5 4-1 1-5z" fill="#242628"/>
<path transform="translate(1009,648)" d="m0 0h2v5l3 1 1 7 1 3 2 1v3h2l1 7-4 1-4-10-1-6-2-2-2 2-1-7z" fill="#292C2E"/>
<path transform="translate(976,638)" d="m0 0 2 1-1 2h2l1 6-3-1-2 4-2 1-1 6h-1l-2 6h-3l-1 5h-2l-1 5h-1v-5l4-7 2-7h2l1-5 4-5h2l-1-4z" fill="#242628"/>
<path transform="translate(967,514)" d="m0 0h5l2 4v30l-2 3-1-34-35-1v-1z" fill="#2D86C7"/>
<path transform="translate(694,381)" d="m0 0 2 2-6 7 5-4v4l-4 2-4 5h-2v2l-3 3-5 8-1-2 4-9 7-11z" fill="#232628"/>
<path transform="translate(720,371)" d="m0 0 4 1v3h-3v2l-15 6-9 4-2-1 6-5 11-5z" fill="#222426"/>
<path transform="translate(518,83)" d="m0 0h2v2h2v2l3 1-1 2-5-4 3 5h-2v6l-1 1h-10v-7l3-3 2 1v3l4-1 1-2h-2v-5z" fill="#424242"/>
<path transform="translate(617,177)" d="m0 0h2v36h-3l-1-4v-9z" fill="#282B2D"/>
<path transform="translate(927,254)" d="m0 0 2 3 1 10 1 14-1 4-3-3-1-4v-21z" fill="#26292B"/>
<path transform="translate(928,322)" d="m0 0 6 1 18 8-4 2h-6l-12-5v-3l-2-1z" fill="#131416"/>
<path transform="translate(882,431)" d="m0 0 2 2-1 4 2 4h3l1 9v4h2l-1 3-6-9-7-13 1-2z" fill="#287DC3"/>
<path transform="translate(934,289)" d="m0 0h39v1h-38v12l-4 13h2l2 4-6-1 1-7 2-9 1-11z" fill="#2B7EC1"/>
<path transform="translate(935,722)" d="m0 0h2v5l-4 5 1 9h2l1 2h7l3-1h7l-1 2-15 2-5-1-4-8 3-9 1-4h2z" fill="#292C2E"/>
<path transform="translate(930,295)" d="m0 0 3 1-1 10-3 10-3 3-1 7h-1v-8l2-9h2v-9z" fill="#232628"/>
<path transform="translate(908,354)" d="m0 0 7 6 16 16-2 1-6-4-5-4-5-5-4-3-2-6z" fill="#293037"/>
<path transform="translate(688,607)" d="m0 0 2 2-1 6-5 11-7 1v2l-3-1 6-7 6-10z" fill="#252729"/>
<path transform="translate(881,419)" d="m0 0 2 1-9 4-21 6-8 1-2 1-2-1 1 4h-2l-3-4v-2l16-2 19-5z" fill="#131416"/>
<path transform="translate(506,131)" d="m0 0 1 3 7 1v10h-3l-3-5v-2h-2l-2 4-2-4-2-2 5-3z" fill="#424242"/>
<path transform="translate(831,426)" d="m0 0 5 2 13 17 5 8 2 4-1 3-10-15-9-12-5-6z" fill="#3388C4"/>
<path transform="translate(961,678)" d="m0 0 1 4-8 18-8 17-1-4 2-4v-3h2v-5l5-9h2l1-4z" fill="#141517"/>
<path transform="translate(641,709)" d="m0 0 3 1-1 5-7 16-4-4 3-7 2-1 3-9z" fill="#1A1B1D"/>
<path transform="translate(741,361)" d="m0 0h15l10 1 1 2-27 1-6-1 1-2z" fill="#202326"/>
<path transform="translate(917,371)" d="m0 0 6 4 2 4-2 3 2 1-1 3-7-6-4-4v-2z" fill="#1C2835"/>
<path transform="translate(1487,765)" d="m0 0h4v3l2 1h-2l-1 4-3 5h-3l-1-5h-2l1-4z" fill="#424242"/>
<path transform="translate(618,678)" d="m0 0 1 2-7 11-3 1-1 3h-2v2h-2l-2-6 5-4 9-6z" fill="#212325"/>
<path transform="translate(925,390)" d="m0 0 2 1-8 9-7 5-8 3-4 2-1-2 15-9z" fill="#282F35"/>
<path transform="translate(1073,733)" d="m0 0 14 1-3 4-3 1h-9v2h-6l5-5-7-1v-1z" fill="#2A2D2F"/>
<path transform="translate(700,670)" d="m0 0 3 1 1 3-1 1 3 1v2l2 2h-9l-6-3-1 4-3 1 3-9 2-2 1 3h-2v2h6z" fill="#434344"/>
<path transform="translate(907,221)" d="m0 0 4 2 4 4 3 6 2 2 1 6h-2v-4h-2l-1-3-2 1-5-5-2-4z" fill="#222527"/>
<path transform="translate(959,332)" d="m0 0h7l-2 5-5 2v2l-3 1-6-3-1-2 9-2z" fill="#404142"/>
<path transform="translate(637,706)" d="m0 0 2 1-2 10-2 3h-2v4l-6 3-3-1 1-3 4-2 4-5 3-6z" fill="#292C2E"/>
<path transform="translate(951,553)" d="m0 0h21l-1 3-4 2-4-1 1-1-28-1v-1z" fill="#292E33"/>
<path transform="translate(689,438)" d="m0 0 1 3-5 24h-2l-1-7 1-5z" fill="#292C2E"/>
<path transform="translate(948,701)" d="m0 0h1v5h-2l1 4-3 7h-2v2l-2 1-1 5-3 1v-7l2-1 3-5h2l2-11z" fill="#212325"/>
<path transform="translate(896,308)" d="m0 0h2l2 5-6 12-2-2v-4h-2v-4h2v2h2z" fill="#3386C3"/>
<path transform="translate(786,143)" d="m0 0 2 2v14l-1-2-3-1-5-7v-2l6-1z" fill="#45ADD9"/>
<path transform="translate(850,268)" d="m0 0 3 2v2h2l1 8h2v11l-2 2-1-2-1-11-4-9z" fill="#292C2E"/>
<path transform="translate(857,257)" d="m0 0 3 1 7 12v21l-2 1v-14l-3-11-5-8z" fill="#257AC2"/>
<path transform="translate(926,318)" d="m0 0 2 3v3l4 2v2l6 3v1h-7l-8-4 2-1v-8z" fill="#202224"/>
<path transform="translate(1400,774)" d="m0 0 5 1v2h3v2l4 1-1 4h-2l-1 2-3-4-1 2h2v2h-4l-1-5 3-1 1-2-3 1v-3h-2z" fill="#464646"/>
<path transform="translate(1142,712)" d="m0 0h14l-1 3h-10l1 2 4 1v3l-4-1-2 2v-2h-3z" fill="#424242"/>
<path transform="translate(917,552)" d="m0 0h17l17 1v1l-15 1h-14l-5-1z" fill="#212326"/>
<path transform="translate(645,353)" d="m0 0 1 4-3 4h-2l-2 5-7 9-3 5h-2v-3h2l2-5 10-14z" fill="#293138"/>
<path transform="translate(977,645)" d="m0 0 1 3-8 17-5 10-1-3 3-8 1-3 1 1 1-6h1l2-6 2-1z" fill="#141517"/>
<path transform="translate(942,231)" d="m0 0 2 1-1 4-6 1-9 4h-4v-3z" fill="#293137"/>
<path transform="translate(919,713)" d="m0 0 2 1-3 6-4 4h-3v2h-4v-4l8-6z" fill="#252729"/>
<path transform="translate(928,251)" d="m0 0h2l4 17v7l-2 4-2-14-2-8z" fill="#2A3238"/>
<path transform="translate(926,178)" d="m0 0 1 3-17 17-3 4h-2v2l-5 1-1-2 7-2 2-4 16-16z" fill="#2667AD"/>
<path transform="translate(897,547)" d="m0 0 9 1 17 3v1l-13 1-13-4z" fill="#23282C"/>
<path transform="translate(866,427)" d="m0 0 4 1-13 5-13 3 2 5-5-5 2-3 12-2z" fill="#282C2E"/>
<path transform="translate(1230,733)" d="m0 0 4 2-1 4 3 1-2 8-1-2h-2l-1-4 1-2-2-1 1-2h-2l-1 2 1-4h2z" fill="#444"/>
<path transform="translate(687,177)" d="m0 0h18l1 2-8 1h-20v-1z" fill="#292C2F"/>
<path transform="translate(830,361)" d="m0 0h7l4 2-14 2h-28v-1l27-1z" fill="#232628"/>
<path transform="translate(710,370)" d="m0 0 6 1-3 2-10 5-7 5-1-3 10-7z" fill="#212427"/>
<path transform="translate(660,338)" d="m0 0 2 1 4-1-6 7-6 8-3 1 2-4 3-4-3 2 2-5z" fill="#212426"/>
<path transform="translate(654,344)" d="m0 0m-1 1m3 0 2 1-6 6-3 5-4 2 1-7 7-6h2z" fill="#1E2022"/>
<path transform="translate(1170,712)" d="m0 0 5 1 1 14 3 1-1 3-5-3v-3l-4 1 1-3 2-1-1-8z" fill="#424242"/>
<path transform="translate(680,624)" d="m0 0 3 1-1 5-4 9-4-3 2-4z" fill="#1B1C1D"/>
<path transform="translate(868,425)" d="m0 0h2v2l-13 4-12 3h-4v-3l12-2z" fill="#202224"/>
<path transform="translate(754,427)" d="m0 0h7l-4 3-13 2-7 6 2-5 5-4z" fill="#262C32"/>
<path transform="translate(677,404)" d="m0 0 1 2-3 9-6 21h-1l1-10 5-16z" fill="#293138"/>
<path transform="translate(922,328)" d="m0 0 3 1h-2l-2 5-9 14-3 3-2 3-1-3 8-10 5-10h2z" fill="#24292C"/>
<path transform="translate(943,717)" d="m0 0h2l-3 9-2 8-2 1-1-5 1-6 2-4 3-1z" fill="#1A1B1D"/>
<path transform="translate(908,405)" d="m0 0 2 1-11 8-5 2-3-1 6-6 6-1z" fill="#1E2123"/>
<path transform="translate(891,162)" d="m0 0h2l-2 6-9 18-1 4h2v2l-4-2 1-5 9-19z" fill="#2778BF"/>
<path transform="translate(886,335)" d="m0 0v3l-4 5h-2v2h-2v2l-5 3-1-2 6-7z" fill="#282F34"/>
<path transform="translate(834,242)" d="m0 0 9 2 8 5v2l4 2 1 3-4-2-5-4-8-4-5-2z" fill="#257AC2"/>
<path transform="translate(1028,677)" d="m0 0 4 1 1 4h-24v-1l18-2z" fill="#141517"/>
<path transform="translate(846,148)" d="m0 0h1l-1 11-2 11-4 1 2-10 2-6z" fill="#262A2F"/>
<path transform="translate(872,484)" d="m0 0h3l2 4 8 7 5 3v3l-4-2-8-7z" fill="#2C84C6"/>
<path transform="translate(915,227)" d="m0 0h4l5 9v5h-2l-4-7-3-5z" fill="#30363A"/>
<path transform="translate(835,630)" d="m0 0h39l2 2-3 1-4-1-34-1z" fill="#232527"/>
<path transform="translate(871,349)" d="m0 0 2 1-10 7-7 4h-7l2-2 14-6z" fill="#1F2123"/>
<path transform="translate(643,701)" d="m0 0 2 1-3 5 2 2-2 2-1-1-4 10h-2l3-10 1-5z" fill="#202224"/>
<path transform="translate(645,689)" d="m0 0h4l-1 3h-2v9h-3l-1 3-4 2 2-5 3-6h2l-1-4z" fill="#292C2E"/>
<path transform="translate(721,313)" d="m0 0h7v2l-7 3-9 3v-2l5-4z" fill="#232527"/>
<path transform="translate(991,611)" d="m0 0 2 1-1 5-4 8-4-1 2-5 4-5z" fill="#212325"/>
<path transform="translate(724,553)" d="m0 0h11l-2 4-6 3-2-1 3-4h-11v-1z" fill="#292F35"/>
<path transform="translate(1011,598)" d="m0 0 16 1 1 2h-25l1-2z" fill="#424242"/>
<path transform="translate(958,224)" d="m0 0 1 3-5 3-8 2-2-2 6-2 1-2z" fill="#31383E"/>
<path transform="translate(702,657)" d="m0 0 1 2-4 12-2 1-1 4h-3l1-5h2l2-7z" fill="#191A1C"/>
<path transform="translate(905,419)" d="m0 0h2l-1 3-11 6-6 3h-2v-2l10-5h2v-2z" fill="#406F9D"/>
<path transform="translate(704,411)" d="m0 0h2l-2 5-5 12-1-2h-2l1-4z" fill="#24292D"/>
<path transform="translate(694,381)" d="m0 0 2 2-9 9-5 7-1-2 8-11z" fill="#293139"/>
<path transform="translate(945,369)" d="m0 0v3l-8 10-4 2-1-6 4 1z" fill="#293139"/>
<path transform="translate(644,358)" d="m0 0 1 2-6 8-7 11-2-2 7-10 4-6h2z" fill="#212325"/>
<path transform="translate(691,336)" d="m0 0h5l-3 3-8 4-5 2 2-4z" fill="#1970C2"/>
<path transform="translate(939,235)" d="m0 0h2v2l-14 7h-3v-2l10-5z" fill="#1F2123"/>
<path transform="translate(890,736)" d="m0 0 1 2-4 2-3 3-6 2h-8v-1l7-2 5-2z" fill="#292C2E"/>
<path transform="translate(893,411)" d="m0 0 2 2-10 5-9 1 3-2z" fill="#282F36"/>
<path transform="translate(930,318)" d="m0 0 9 1 8 3v2l4 1-2 1-19-7z" fill="#1B70C1"/>
<path transform="translate(876,440)" d="m0 0h2l9 16h-3l-2-5-3-1z" fill="#151719"/>
<path transform="translate(893,503)" d="m0 0 5 1 9 4h2l1 3-5-1-12-6z" fill="#338BC7"/>
<path transform="translate(818,470)" d="m0 0 4 5 5 8h-3l-7-10z" fill="#23272A"/>
<path transform="translate(667,325)" d="m0 0h1v9l-1 4-5 3-2-1 5-5 1-9z" fill="#283037"/>
<path transform="translate(911,225)" d="m0 0 4 2 3 6 2 2 1 6h-2v-4h-2l-5-9z" fill="#151618"/>
<path transform="translate(831,426)" d="m0 0 5 2 6 8-1 3-10-12z" fill="#3793CB"/>
<path transform="translate(618,678)" d="m0 0 1 2-4 6-6 3h-3l1-2 9-6zm-13 11 1 2-2-1z" fill="#1D1E20"/>
<path transform="translate(891,162)" d="m0 0h2l-2 6-5 9-1-2z" fill="#3075B2"/>
</svg>
